<?xml version="1.0" standalone="no"?>
<!DOCTYPE svg PUBLIC "-//W3C//DTD SVG 20010904//EN"
 "http://www.w3.org/TR/2001/REC-SVG-20010904/DTD/svg10.dtd">
<svg version="1.0" xmlns="http://www.w3.org/2000/svg"
 width="700.000000pt" height="438.000000pt" viewBox="0 0 700.000000 438.000000"
 preserveAspectRatio="xMidYMid meet">

<g transform="translate(0.000000,438.000000) scale(0.100000,-0.100000)"
fill="#000000" stroke="none">
<path d="M0 2190 l0 -2190 830 0 c488 0 830 4 830 10 0 14 33 20 64 12 18 -5
49 -3 80 5 55 14 86 10 86 -13 0 -9 11 -14 35 -14 19 0 35 5 35 11 0 7 13 9
38 4 67 -12 176 -11 216 2 27 9 43 10 51 3 7 -6 33 -11 57 -10 23 0 107 -1
185 -4 141 -4 142 -4 158 20 16 25 48 34 40 12 -9 -24 11 -40 45 -36 43 4 53
28 11 28 -29 0 -55 19 -29 21 80 9 80 9 73 -22 -5 -22 -3 -29 8 -29 8 0 17 7
21 15 7 19 30 19 46 0 9 -11 34 -15 104 -14 50 0 83 4 72 8 -32 13 77 31 187
31 56 0 109 4 117 10 9 6 17 5 22 -3 5 -8 73 -14 230 -18 123 -3 185 -6 139
-7 -46 -1 -82 -4 -79 -7 2 -3 78 -8 167 -12 126 -5 167 -3 187 8 20 10 29 11
45 1 11 -7 19 -8 19 -2 0 6 28 10 68 9 46 0 61 -3 47 -9 -19 -8 -19 -9 3 -9
12 -1 22 2 22 7 0 4 71 4 157 0 87 -3 710 -6 1386 -7 l1227 -1 0 2190 0 2190
-1465 0 c-806 0 -1465 -3 -1465 -6 0 -10 40 -145 51 -176 7 -17 16 -25 25 -21
9 3 14 -1 14 -13 0 -9 30 -47 68 -84 64 -63 115 -122 137 -159 30 -49 89 -131
120 -166 33 -37 44 -60 74 -156 6 -19 11 -78 11 -129 0 -52 5 -168 11 -257 19
-283 -13 -509 -109 -758 -21 -55 -51 -140 -66 -190 -51 -164 -67 -185 -154
-192 -36 -3 -55 1 -82 18 -36 23 -28 39 9 19 16 -8 26 -7 43 4 13 7 35 16 49
20 32 7 54 50 70 131 9 47 19 67 45 92 19 17 34 39 34 47 0 9 4 16 9 16 5 0
12 17 16 37 4 21 14 51 23 68 13 24 17 63 19 192 1 98 6 171 13 184 17 30 5
170 -15 185 -11 8 -14 20 -10 37 4 14 1 35 -5 48 -19 34 -39 213 -30 255 6 24
4 46 -6 70 -8 18 -14 42 -14 53 0 23 -115 208 -144 233 -12 10 -26 16 -33 13
-6 -2 -14 -1 -16 3 -2 4 -2 2 -1 -5 2 -6 6 -29 9 -50 4 -21 17 -72 30 -113 13
-42 29 -112 35 -155 16 -107 24 -871 10 -906 -6 -14 -30 -37 -52 -52 -51 -33
-110 -36 -153 -7 l-30 20 35 -6 c19 -4 37 -8 39 -10 7 -6 82 37 85 49 16 60
21 118 11 127 -18 15 -35 82 -28 110 3 14 17 40 30 58 21 27 23 35 12 48 -15
18 -20 174 -6 174 5 0 6 8 2 18 -4 9 -9 33 -11 52 -3 19 -14 50 -24 68 -25 42
-25 52 1 52 19 0 20 2 8 17 -11 13 -11 17 -1 21 9 3 10 8 2 16 -5 7 -12 37
-15 66 -3 29 -11 60 -18 68 -6 8 -10 16 -8 16 5 1 -18 41 -50 88 -11 15 -19
32 -19 37 0 5 -14 32 -31 60 -22 35 -32 63 -32 91 0 23 -8 58 -18 78 -11 20
-19 47 -19 59 0 13 -5 23 -11 23 -5 0 -7 5 -4 10 3 6 17 7 31 4 33 -8 30 2 -6
21 -16 9 -30 21 -30 28 0 17 -59 87 -73 87 -7 0 -34 21 -60 45 -27 25 -56 45
-65 45 -18 0 -54 -20 -36 -20 6 0 30 -39 54 -87 24 -49 65 -124 91 -168 26
-44 62 -123 79 -175 17 -52 49 -123 71 -156 34 -52 41 -73 46 -131 5 -67 5
-70 -22 -91 -36 -29 -42 -28 -37 6 6 41 -46 114 -83 118 -34 4 -54 22 -71 66
-30 82 -52 146 -64 188 -6 25 -18 59 -26 76 -9 17 -18 46 -21 64 -2 19 -14 45
-24 59 -11 13 -17 32 -14 42 3 9 0 23 -7 30 -8 8 -25 30 -38 49 -13 19 -45 57
-70 83 -25 27 -52 61 -60 76 -48 88 -114 131 -179 116 -21 -4 -30 -2 -34 9 -4
9 -17 16 -29 16 -27 0 -50 13 -47 26 1 5 1 14 0 21 -1 9 -373 12 -1641 13
l-1640 0 0 -2190z m1907 1788 c-2 -7 -11 1 -20 19 -24 45 -21 64 4 26 11 -18
19 -38 16 -45z m53 -125 c-1 -14 -4 -13 -15 7 -19 33 -19 45 0 26 8 -8 15 -23
15 -33z m1470 -133 c-14 -10 -43 -28 -65 -39 -22 -11 -49 -28 -60 -38 -31 -28
-100 -73 -112 -73 -14 0 -20 -24 -34 -156 -21 -190 -6 -237 199 -664 33 -69
68 -152 78 -185 10 -33 22 -63 26 -66 5 -3 -2 -13 -15 -22 -13 -8 -29 -29 -36
-45 -13 -30 -59 -60 -70 -44 -12 16 -66 87 -76 98 -5 6 -25 28 -44 49 -24 27
-30 40 -22 48 16 16 14 27 -6 27 -9 0 -13 3 -10 7 4 3 -9 21 -28 39 -19 17
-35 37 -35 43 0 7 -4 10 -9 7 -5 -3 -16 10 -25 29 -18 38 -38 55 -44 37 -5
-17 -32 -15 -32 2 0 15 48 48 123 86 26 13 50 27 53 31 7 11 -18 49 -32 49
-17 0 -84 77 -84 98 0 9 -7 26 -15 36 -8 11 -15 27 -15 36 0 9 -16 35 -35 57
-38 45 -43 61 -20 69 19 8 19 33 1 70 -15 30 -16 42 -2 82 6 19 13 22 34 18
15 -3 32 -3 37 2 16 12 34 49 40 82 5 29 4 30 -22 25 -27 -6 -27 -6 -9 9 11 9
24 16 30 16 5 0 17 7 27 16 9 8 26 16 38 17 11 1 21 5 21 10 0 4 5 5 10 2 6
-3 10 -1 10 4 0 6 3 10 8 9 4 -2 29 13 57 32 104 73 238 147 165 90z m-837
-581 c3 -12 1 -19 -6 -16 -6 2 -14 16 -18 31 -6 22 -5 25 6 16 7 -6 15 -20 18
-31z m107 -254 c0 -5 -5 -3 -10 5 -5 8 -10 20 -10 25 0 6 5 3 10 -5 5 -8 10
-19 10 -25z m64 -73 c-1 -85 -3 -90 -19 -62 -8 14 -14 39 -13 55 0 27 1 27 8
-8 11 -58 17 -52 12 13 -2 33 0 60 4 60 5 0 9 -26 8 -58z m1416 -36 c0 -3 -4
-8 -10 -11 -5 -3 -10 -1 -10 4 0 6 5 11 10 11 6 0 10 -2 10 -4z m-1286 -32
c11 -29 7 -46 -10 -40 -8 3 -12 2 -9 -4 3 -5 -9 -6 -29 -3 -31 5 -36 3 -42
-21 -3 -14 -10 -23 -15 -20 -5 3 2 27 16 55 22 42 30 49 54 49 17 0 31 -6 35
-16z m1301 -30 c28 -30 31 -44 11 -44 -14 0 -46 41 -46 60 0 16 9 12 35 -16z
m-577 -257 c4 -30 -12 -37 -22 -9 -3 9 -9 23 -12 30 -4 10 0 13 12 10 12 -2
20 -13 22 -31z m350 -148 c17 -11 13 -19 -47 -103 -95 -131 -141 -176 -180
-176 l-32 0 21 30 c13 18 26 27 35 23 8 -3 15 0 15 7 0 7 11 21 25 32 22 17
68 98 69 123 1 6 8 15 16 21 12 10 12 15 2 27 -11 13 -10 16 10 20 41 8 48 7
66 -4z m-508 -41 c0 -11 -48 -10 -55 2 -3 6 -1 10 4 10 6 0 11 7 11 17 0 14 2
14 20 -2 11 -10 20 -22 20 -27z m-1898 -68 c4 -25 21 -79 37 -120 38 -97 43
-123 31 -154 -17 -45 -22 -40 -72 69 -17 37 -22 65 -20 110 2 73 -6 128 -19
120 -10 -7 -12 8 -2 19 18 18 38 -2 45 -44z m2025 -42 c-3 -8 -6 -5 -6 6 -1
11 2 17 5 13 3 -3 4 -12 1 -19z m-137 -21 c0 -36 -55 -110 -101 -136 -32 -19
-51 -22 -91 -19 -27 3 -54 10 -60 16 -7 7 2 8 33 1 30 -7 45 -7 47 0 2 6 20
19 40 28 51 24 82 62 82 101 0 24 8 32 32 32 12 0 18 -7 18 -23z m-1962 -88
c-31 -56 -39 -39 -15 32 20 57 22 59 29 33 5 -20 1 -38 -14 -65z m-465 23 c21
-23 31 -73 23 -107 -10 -38 -23 -30 -41 24 -14 44 -45 87 -45 65 0 -5 -4 -3
-9 5 -8 12 -13 12 -35 -2 -28 -19 -46 -22 -46 -7 0 17 54 39 96 40 27 0 46 -6
57 -18z m-618 -178 c28 -77 34 -89 73 -157 34 -58 38 -92 12 -92 -26 0 -104
177 -125 284 -12 56 16 33 40 -35z m3243 16 c12 -16 22 -31 22 -34 0 -12 86
-129 107 -146 13 -10 23 -22 23 -27 0 -6 10 -15 23 -21 20 -10 18 -11 -19 -11
-23 -1 -57 6 -75 14 l-34 14 30 1 30 2 -27 11 c-43 20 -65 45 -86 100 -22 57
-35 127 -23 127 4 0 17 -13 29 -30z m-2621 -57 c-3 -10 -5 -4 -5 12 0 17 2 24
5 18 2 -7 2 -21 0 -30z m5772 -13 c44 -43 51 -72 24 -102 -25 -28 -61 -22 -99
16 -38 38 -44 78 -17 108 24 27 46 22 92 -22z m-5114 19 c11 -16 1 -20 -35
-12 -29 5 -31 7 -15 14 29 11 43 10 50 -2z m-265 -3 c0 -11 -19 -15 -25 -6 -3
5 1 10 9 10 9 0 16 -2 16 -4z m-232 -17 c-2 -6 -7 -10 -11 -10 -4 1 -22 1 -39
2 -28 0 -30 2 -13 9 29 12 67 12 63 -1z m-393 -9 c-3 -5 -16 -10 -28 -9 -20 1
-20 2 3 9 14 4 26 8 28 9 2 1 0 -3 -3 -9z m-494 -34 c-7 -8 -10 -20 -6 -27 8
-12 -11 -29 -33 -29 -7 0 -2 15 14 40 15 22 29 38 32 35 3 -2 -1 -11 -7 -19z
m6417 -141 c3 -58 -29 -175 -49 -175 -4 0 -17 14 -29 30 -18 25 -20 36 -12 58
6 15 13 47 16 71 5 44 37 85 61 77 6 -1 11 -29 13 -61z m-4583 15 c39 -104 45
-123 40 -128 -18 -18 -75 100 -75 157 0 24 22 5 35 -29z m1275 -10 c0 -5 -9
-10 -21 -10 -11 0 -17 5 -14 10 3 6 13 10 21 10 8 0 14 -4 14 -10z m410 -12
c8 -1 26 -10 40 -21 27 -21 30 -21 -41 -1 -14 4 -19 2 -15 -5 4 -6 17 -11 30
-11 12 0 31 -7 42 -15 18 -15 15 -15 -31 -11 -27 3 -56 6 -62 7 -16 3 -17 19
-2 19 5 0 7 5 4 10 -4 6 -11 8 -16 5 -5 -4 -9 -4 -9 -1 0 2 -3 12 -7 22 -5 14
-2 16 23 10 16 -4 36 -7 44 -8z m-390 -18 c0 -5 -8 -10 -17 -10 -15 0 -16 2
-3 10 19 12 20 12 20 0z m320 -21 c0 -11 -3 -11 -24 -3 -23 9 -20 23 4 17 11
-3 20 -9 20 -14z m-1687 -75 c-14 -41 -34 -56 -48 -35 -3 5 5 30 17 55 16 34
25 43 34 35 10 -8 9 -19 -3 -55z m1313 31 c-11 -8 -29 -15 -40 -15 -21 1 -21
1 -2 15 11 8 29 15 40 15 21 -1 21 -1 2 -15z m-2291 -25 c-3 -5 -10 -10 -16
-10 -5 0 -9 5 -9 10 0 6 7 10 16 10 8 0 12 -4 9 -10z m69 -9 c3 -4 3 -11 0
-14 -8 -8 -34 3 -34 14 0 11 27 12 34 0z m1059 -15 c19 -15 23 -41 7 -51 -16
-10 -40 15 -40 41 0 27 7 29 33 10z m1734 -37 c18 -34 16 -46 -8 -52 -15 -4
-19 -2 -15 10 7 18 -33 55 -52 48 -8 -3 -19 -2 -25 2 -7 4 -2 10 13 14 44 11
74 3 87 -22z m-2307 -9 c0 -5 -2 -10 -4 -10 -3 0 -8 5 -11 10 -3 6 -1 10 4 10
6 0 11 -4 11 -10z m-230 -10 c0 -5 -12 -10 -27 -10 -22 0 -25 2 -13 10 20 13
40 13 40 0z m340 0 c0 -5 -11 -10 -24 -10 -14 0 -28 5 -31 10 -4 6 7 10 24 10
17 0 31 -4 31 -10z m2150 -50 c0 -5 -5 -10 -11 -10 -5 0 -7 5 -4 10 3 6 8 10
11 10 2 0 4 -4 4 -10z m-1226 -51 c-19 -37 -48 -40 -42 -4 3 13 1 22 -3 19 -5
-3 -9 2 -9 11 0 11 5 15 15 12 8 -4 17 -2 21 4 4 6 11 6 20 -2 11 -9 11 -15
-2 -40z m-89 21 c0 -22 -29 -18 -33 3 -3 14 1 18 15 15 10 -2 18 -10 18 -18z
m2589 4 c17 -17 21 -51 7 -72 -15 -24 -64 -10 -81 23 -8 17 -19 33 -25 37 -11
8 30 26 62 27 12 1 29 -6 37 -15z m-4720 -21 c-20 -15 -34 -17 -34 -5 0 16 23
30 38 25 13 -5 12 -8 -4 -20z m4522 2 c9 -23 -4 -62 -22 -69 -32 -12 -54 3
-54 38 0 18 3 36 7 39 12 13 64 7 69 -8z m862 -31 c37 -24 24 -84 -19 -84 -9
0 -27 9 -41 19 -19 16 -83 35 -108 34 -3 0 -12 -13 -21 -29 -21 -39 -64 -45
-73 -10 -12 49 0 59 87 72 26 3 50 11 53 16 8 12 93 -1 122 -18z m-5598 -4 c0
-5 -10 -10 -22 -10 -19 0 -20 2 -8 10 19 13 30 13 30 0z m315 0 c-3 -5 -15
-10 -25 -10 -10 0 -22 5 -25 10 -4 6 7 10 25 10 18 0 29 -4 25 -10z m2045 -69
c0 -10 -7 -24 -15 -31 -12 -10 -16 -9 -21 4 -3 9 -4 23 0 31 8 21 36 19 36 -4z
m-2020 -40 c0 -14 -28 -33 -39 -27 -16 10 -1 36 20 36 10 0 19 -4 19 -9z
m1618 -19 c2 -15 -2 -22 -12 -22 -11 0 -16 9 -16 26 0 31 23 28 28 -4z m-1458
-6 c0 -20 -19 -31 -32 -18 -6 6 -7 15 -4 21 10 16 36 13 36 -3z m1524 -2 c22
-9 20 -24 -3 -24 -21 0 -34 13 -24 24 8 7 8 7 27 0z m-254 -24 c0 -5 -4 -10
-10 -10 -5 0 -10 5 -10 10 0 6 5 10 10 10 6 0 10 -4 10 -10z m681 -33 c-13
-13 -26 -3 -16 12 3 6 11 8 17 5 6 -4 6 -10 -1 -17z m247 -26 c3 -24 0 -32
-10 -29 -7 3 -14 19 -16 37 -3 24 0 32 10 29 7 -3 14 -19 16 -37z m-1821 2
c-9 -9 -19 -14 -23 -11 -10 10 6 28 24 28 15 0 15 -1 -1 -17z m1529 -8 c-3 -9
-11 -13 -16 -10 -8 5 -7 11 1 21 14 18 24 11 15 -11z m-1338 -9 c3 -12 -1 -17
-10 -14 -7 3 -15 13 -16 22 -3 12 1 17 10 14 7 -3 15 -13 16 -22z m1102 15 c0
-12 -20 -25 -27 -18 -7 7 6 27 18 27 5 0 9 -4 9 -9z m138 -15 c6 -31 -16 -43
-27 -15 -5 13 -7 28 -4 32 8 13 28 2 31 -17z m920 3 c2 -9 -5 -19 -14 -23 -21
-8 -50 17 -39 34 10 16 49 8 53 -11z m-330 -74 c6 -30 -31 -13 -39 18 -7 28
-7 28 14 14 12 -8 24 -22 25 -32z m-140 13 c-6 -18 -28 -21 -28 -4 0 9 7 16
16 16 9 0 14 -5 12 -12z m2161 -17 c17 -11 7 -41 -14 -41 -9 0 -15 9 -15 25 0
27 6 30 29 16z m56 -21 c17 2 17 -30 0 -36 -24 -10 -37 9 -29 42 6 23 8 25 14
10 3 -9 10 -17 15 -16z m-1688 -6 c3 -8 0 -21 -6 -27 -14 -14 -44 2 -49 27 -5
22 46 22 55 0z m-142 -4 c3 -6 -1 -13 -10 -16 -19 -8 -30 0 -20 15 8 14 22 14
30 1z m2439 -6 c9 -3 16 -12 16 -20 0 -8 5 -14 10 -14 6 0 10 5 10 10 0 6 7
10 15 10 8 0 15 -9 15 -21 0 -17 -4 -19 -22 -13 -13 4 -35 7 -49 6 -27 -2 -45
20 -33 39 6 11 16 11 38 3z m-5024 -63 c0 -5 -7 -12 -16 -15 -22 -9 -24 -8
-24 9 0 8 9 15 20 15 11 0 20 -4 20 -9z m3265 -16 c0 -30 -39 -27 -43 3 -3 20
0 23 20 20 15 -2 23 -10 23 -23z m-1535 11 c0 -3 -4 -8 -10 -11 -5 -3 -10 -1
-10 4 0 6 5 11 10 11 6 0 10 -2 10 -4z m1420 -10 c0 -8 -5 -18 -11 -22 -14 -8
-33 11 -25 25 10 16 36 13 36 -3z m-2699 -59 c-13 -13 -26 -3 -16 12 3 6 11 8
17 5 6 -4 6 -10 -1 -17z m1849 2 c0 -5 -4 -9 -10 -9 -5 0 -10 7 -10 16 0 8 5
12 10 9 6 -3 10 -10 10 -16z m-1749 -12 c-13 -13 -26 -3 -16 12 3 6 11 8 17 5
6 -4 6 -10 -1 -17z m-276 -7 c-3 -5 -10 -10 -16 -10 -5 0 -9 5 -9 10 0 6 7 10
16 10 8 0 12 -4 9 -10z m1440 0 c3 -5 32 -10 63 -10 36 0 52 -4 42 -9 -24 -14
-130 -1 -130 15 0 16 16 19 25 4z m-145 -20 c0 -5 -7 -10 -16 -10 -8 0 -12 5
-9 10 3 6 10 10 16 10 5 0 9 -4 9 -10z m730 0 c0 -5 -4 -10 -10 -10 -5 0 -10
5 -10 10 0 6 5 10 10 10 6 0 10 -4 10 -10z m88 -17 c2 -8 -5 -13 -17 -13 -21
0 -35 13 -24 24 10 10 36 3 41 -11z m-1889 -16 c-19 -18 -49 -29 -49 -17 0 10
52 41 59 35 2 -2 -3 -10 -10 -18z m1661 13 c0 -5 -9 -10 -20 -10 -11 0 -20 5
-20 10 0 6 9 10 20 10 11 0 20 -4 20 -10z m535 -40 c3 -5 19 -7 34 -4 17 4 32
1 36 -6 13 -21 -9 -30 -45 -18 -19 6 -41 13 -48 14 -7 2 -10 8 -7 14 8 13 22
13 30 0z m-955 -10 c0 -5 -2 -10 -4 -10 -3 0 -8 5 -11 10 -3 6 -1 10 4 10 6 0
11 -4 11 -10z m288 -80 c17 -30 32 -58 32 -62 0 -18 -32 -20 -50 -3 -24 22
-55 100 -45 115 12 19 29 6 63 -50z m1261 51 c18 -11 5 -31 -20 -31 -18 0 -26
20 -12 33 8 9 15 9 32 -2z m-179 -16 c0 -8 -7 -15 -15 -15 -8 0 -15 7 -15 15
0 8 7 15 15 15 8 0 15 -7 15 -15z m-2808 -110 c0 -5 -5 -10 -11 -11 -8 -2 -7
-1 0 3 8 4 7 8 -2 15 -11 8 -11 9 -1 6 8 -2 14 -8 14 -13z m617 -63 c9 -17 31
-58 49 -92 18 -34 31 -67 29 -74 -6 -16 21 -66 36 -66 8 0 7 -4 -3 -10 -13 -8
-12 -10 3 -10 9 0 17 -5 17 -11 0 -5 5 -7 10 -4 6 3 10 4 10 1 0 -2 2 -10 5
-18 5 -13 0 -15 -55 -20 -40 -3 -71 3 -68 15 3 15 -50 130 -65 139 -6 3 -10
31 -9 62 1 31 -2 56 -7 56 -7 0 -8 34 -2 73 2 15 35 -11 50 -41z m-609 8 c0
-11 -4 -20 -10 -20 -5 0 -10 9 -10 20 0 11 5 20 10 20 6 0 10 -9 10 -20z
m-590 -45 c0 -27 -13 -45 -32 -45 -10 0 -17 4 -14 9 3 5 -1 14 -9 21 -14 12
-11 33 9 59 8 11 13 9 28 -9 10 -12 18 -28 18 -35z m218 -6 c14 -22 8 -79 -9
-79 -12 0 -39 55 -39 80 0 27 31 26 48 -1z m566 -41 c26 -53 22 -76 -9 -64
-18 6 -45 64 -45 96 0 37 29 20 54 -32z m4306 12 c19 -46 -5 -146 -41 -167
-31 -19 -62 -77 -54 -103 6 -19 -17 -46 -62 -77 -18 -12 -29 -13 -52 -5 -16 6
-47 8 -69 5 -33 -4 -44 -1 -73 25 -30 27 -33 33 -24 58 9 26 6 32 -32 67 -24
22 -41 42 -39 46 3 4 7 33 10 65 7 82 21 86 79 23 57 -61 69 -80 77 -127 6
-39 41 -63 79 -53 18 5 21 10 16 31 -5 19 1 32 24 56 17 17 44 58 61 91 27 53
62 94 81 95 4 0 12 -14 19 -30z m-692 -2 c26 -26 4 -115 -38 -153 -28 -26 -50
-68 -50 -98 0 -12 -15 -40 -34 -60 -38 -41 -72 -48 -104 -19 -28 24 -13 75 28
93 24 11 29 19 28 47 -1 22 7 41 23 60 14 15 31 41 39 57 38 79 76 105 108 73z
m-2652 -25 c43 -58 47 -73 28 -94 -9 -10 -23 -19 -30 -19 -19 0 -44 58 -44
102 0 46 17 50 46 11z m296 -2 c9 -10 19 -28 23 -40 3 -12 10 -21 15 -21 4 0
11 -7 14 -16 7 -19 -11 -57 -25 -49 -5 4 -7 11 -4 16 4 5 0 9 -7 9 -16 1 -48
63 -48 95 0 30 10 32 32 6z m647 -103 c19 -31 38 -55 43 -52 4 3 8 -2 8 -10 0
-8 -9 -17 -19 -21 -21 -6 -71 3 -69 14 3 24 -3 31 -19 23 -10 -6 -27 -6 -45 0
-31 11 -36 25 -12 35 12 5 15 14 10 44 -4 27 -2 42 9 53 8 8 15 20 15 27 0 13
26 -24 79 -113z m-3149 83 c13 -31 7 -51 -14 -51 -14 0 -36 41 -36 65 0 27 37
16 50 -14z m5834 4 c6 -11 14 -22 17 -25 3 -3 12 -22 18 -43 10 -28 10 -41 2
-51 -11 -13 -84 -28 -126 -26 -11 0 -37 0 -57 0 -45 -1 -73 32 -62 74 8 33 14
33 47 -2 25 -27 30 -28 62 -18 20 6 35 18 35 26 0 8 5 32 11 53 11 42 34 47
53 12z m-5639 -27 c-2 -18 -3 -43 -4 -55 -1 -20 -42 -43 -78 -43 -18 0 -7 45
20 85 39 56 66 61 62 13z m959 17 c-4 -8 -8 -15 -10 -15 -2 0 -4 7 -4 15 0 8
4 15 10 15 5 0 7 -7 4 -15z m1173 -21 c6 -16 -22 -53 -32 -42 -9 8 6 58 16 58
5 0 12 -7 16 -16z m593 -8 c0 -42 -21 -86 -41 -86 -22 0 -23 4 -6 50 22 63 47
82 47 36z m-1564 -8 c4 -13 10 -25 15 -28 5 -3 6 -23 2 -43 -5 -30 -10 -37
-29 -37 -27 0 -41 18 -20 26 25 9 28 35 6 54 -12 11 -18 24 -14 34 9 23 32 20
40 -6z m639 -5 c11 -14 10 -25 -3 -58 -8 -22 -20 -46 -25 -52 -9 -13 -59 -18
-69 -7 -10 10 64 134 80 134 3 0 10 -8 17 -17z m465 -12 c0 -24 -1 -24 -15 -5
-18 24 -19 31 0 31 9 0 15 -10 15 -26z m1022 12 c9 -10 23 -34 33 -53 10 -19
25 -43 34 -52 48 -51 52 -63 19 -74 -21 -7 -20 -8 17 -26 22 -10 30 -15 18
-12 -31 7 -29 -4 2 -16 48 -18 20 -45 -32 -31 -15 5 -27 13 -25 20 1 6 -5 11
-13 11 -18 0 -20 40 -2 40 6 1 3 6 -8 13 -12 7 -20 19 -18 27 4 19 -59 62 -79
55 -20 -8 -35 15 -17 25 7 5 17 6 22 3 4 -3 8 1 6 8 -9 69 11 98 43 62z m3097
-26 c33 -31 41 -57 25 -88 -12 -25 -11 -27 22 -42 33 -16 41 -33 34 -77 -3
-22 -32 -39 -68 -40 -41 0 -87 41 -78 71 3 10 8 27 12 37 3 12 -4 23 -26 35
-88 53 -71 144 25 130 17 -3 41 -14 54 -26z m-4416 -14 c19 -40 16 -41 -20 -7
-22 20 -25 27 -13 34 8 5 15 8 16 7 0 -1 8 -17 17 -34z m1144 0 c-7 -38 -25
-59 -40 -44 -14 14 12 81 30 81 12 0 14 -8 10 -37z m570 21 c8 -21 -13 -64
-32 -64 -10 0 -15 10 -15 33 0 19 3 37 7 40 12 12 33 7 40 -9z m176 -79 c15
-38 34 -73 42 -78 16 -8 21 -37 7 -37 -4 0 -8 -9 -8 -20 0 -13 10 -23 29 -30
19 -6 27 -15 25 -27 -4 -22 -48 -29 -78 -13 -21 11 -22 27 -4 73 3 9 -3 16
-17 20 -16 4 -20 11 -16 26 3 13 0 21 -8 21 -7 0 -18 6 -24 14 -7 8 -21 12
-31 9 -27 -7 -39 25 -17 42 10 7 17 19 17 28 0 31 13 48 34 45 15 -2 28 -21
49 -73z m-1400 8 c16 -10 -5 -23 -23 -13 -12 6 -21 7 -25 0 -4 -6 -15 -6 -31
0 -14 6 -44 11 -67 12 -40 1 -39 2 13 8 52 7 116 4 133 -7z m-1049 -8 c3 -9 0
-15 -9 -15 -9 0 -12 6 -9 15 4 8 7 15 9 15 2 0 5 -7 9 -15z m671 5 c-3 -5 -18
-10 -33 -10 -21 0 -24 2 -12 10 20 13 53 13 45 0z m-617 -28 c2 -7 -3 -12 -12
-12 -9 0 -16 7 -16 16 0 17 22 14 28 -4z m1087 7 c10 -15 -1 -23 -20 -15 -9 3
-13 10 -10 16 8 13 22 13 30 -1z m130 1 c-3 -5 -15 -10 -26 -10 -10 0 -19 5
-19 10 0 6 12 10 26 10 14 0 23 -4 19 -10z m-1507 -12 c-5 -15 -48 -24 -48
-10 0 14 12 22 33 22 10 0 17 -5 15 -12z m-1268 -19 c0 -6 -4 -7 -10 -4 -5 3
-10 11 -10 16 0 6 5 7 10 4 6 -3 10 -11 10 -16z m1765 11 c3 -5 1 -10 -4 -10
-6 0 -11 5 -11 10 0 6 2 10 4 10 3 0 8 -4 11 -10z m820 -27 c22 -18 43 -33 47
-33 5 0 8 -5 8 -12 0 -6 -7 -4 -18 6 -16 13 -24 14 -51 5 -25 -9 -42 -9 -74 1
l-42 13 35 8 c19 5 49 6 65 3 23 -5 27 -3 19 6 -7 6 -27 13 -45 14 -73 6 -76
7 -49 15 44 12 65 7 105 -26z m497 9 c-17 -5 -15 -19 4 -26 8 -3 22 1 30 9 9
8 21 15 27 15 7 0 6 -4 -3 -10 -12 -8 -11 -13 8 -33 12 -13 22 -27 22 -32 0
-4 -25 -5 -56 -2 -61 6 -89 22 -65 36 10 6 10 13 2 29 -12 22 2 34 28 24 10
-4 11 -7 3 -10z m-2328 -11 c38 -41 -2 -78 -49 -47 -29 19 -31 29 -9 50 21 21
37 20 58 -3z m560 6 c16 -12 16 -14 2 -26 -19 -16 -66 -6 -66 13 0 12 10 19
41 25 3 0 13 -5 23 -12z m1441 3 c-3 -5 -10 -10 -16 -10 -5 0 -9 5 -9 10 0 6
7 10 16 10 8 0 12 -4 9 -10z m-1915 -22 c0 -5 -11 -8 -25 -8 -14 0 -25 3 -25
8 0 4 11 7 25 7 14 0 25 -3 25 -7z m900 -18 c0 -9 -26 -7 -36 2 -3 4 -3 12 1
18 7 12 35 -4 35 -20z m-60 10 c0 -5 -5 -10 -12 -10 -25 0 8 -18 43 -23 38 -6
70 5 50 17 -6 4 -11 12 -11 18 0 6 9 3 20 -7 11 -10 17 -22 14 -27 -3 -5 6 -7
20 -4 14 3 28 1 31 -3 2 -5 -21 -10 -53 -11 -88 -5 -137 -1 -140 10 -2 6 -9 7
-15 3 -7 -4 -6 1 2 10 9 11 10 17 2 17 -6 0 -11 5 -11 10 0 6 14 10 30 10 17
0 30 -4 30 -10z m733 3 c-13 -2 -35 -2 -50 0 -16 2 -5 4 22 4 28 0 40 -2 28
-4z m1287 -7 c0 -8 -6 -16 -12 -19 -20 -7 -37 3 -31 19 7 18 43 18 43 0z
m2063 0 c24 -19 22 -62 -5 -80 -20 -14 -24 -14 -40 1 -24 22 -31 49 -18 73 12
23 37 25 63 6z m-3623 -6 c-36 -12 -80 -12 -80 0 0 6 24 10 53 9 41 -1 47 -3
27 -9z m865 0 c4 -6 -7 -10 -25 -10 -18 0 -29 4 -25 10 3 6 15 10 25 10 10 0
22 -4 25 -10z m205 -20 c0 -14 -28 -1 -34 16 -4 12 -2 12 14 4 11 -6 20 -15
20 -20z m-457 9 c7 0 -5 -7 -26 -16 -28 -11 -41 -13 -49 -5 -8 8 -5 14 13 21
13 5 30 8 37 5 8 -2 19 -4 25 -5z m177 1 c0 -5 -5 -10 -11 -10 -5 0 -7 5 -4
10 3 6 8 10 11 10 2 0 4 -4 4 -10z m-2860 -29 c0 -11 -4 -22 -8 -25 -14 -9
-35 12 -29 28 9 23 37 20 37 -3z m3147 -23 c-3 -8 -6 -5 -6 6 -1 11 2 17 5 13
3 -3 4 -12 1 -19z m383 -3 c0 -8 -4 -15 -10 -15 -5 0 -10 7 -10 15 0 8 5 15
10 15 6 0 10 -7 10 -15z m-1760 -5 c0 -5 -2 -10 -4 -10 -3 0 -8 5 -11 10 -3 6
-1 10 4 10 6 0 11 -4 11 -10z m1830 -24 c0 -18 -33 -30 -60 -21 -39 12 -18 31
38 34 13 1 22 -5 22 -13z m-2276 -13 c5 -11 1 -22 -11 -31 -15 -11 -19 -10
-25 5 -12 31 -9 43 11 43 10 0 22 -8 25 -17z"/>
<path d="M3308 4373 c7 -3 16 -2 19 1 4 3 -2 6 -13 5 -11 0 -14 -3 -6 -6z"/>
<path d="M3680 4258 c0 -17 32 -21 46 -6 13 13 11 15 -16 15 -16 0 -30 -4 -30
-9z"/>
<path d="M3722 4228 c-17 -17 -15 -35 4 -42 8 -3 12 -2 9 4 -3 6 -1 10 5 10 6
0 8 5 5 10 -3 6 -1 10 5 10 6 0 8 5 5 10 -8 13 -18 13 -33 -2z"/>
<path d="M3173 23 c9 -2 25 -2 35 0 9 3 1 5 -18 5 -19 0 -27 -2 -17 -5z"/>
</g>
</svg>
